<?xml version="1.0" encoding="UTF-8"?>
<!-- Generator: Adobe Illustrator 24.3.0, SVG Export Plug-In . SVG Version: 6.00 Build 0)  -->
<svg version="1.1" xmlns="http://www.w3.org/2000/svg" xmlns:xlink="http://www.w3.org/1999/xlink" x="0px" y="0px" viewBox="0 0 1744 491" style="enable-background:new 0 0 1744 491;" xml:space="preserve"><script xmlns=""/>
<style type="text/css">
	.st0{display:none;}
	.st1{display:inline;fill:#002136;}
	.st2{fill:#FF3366;}
	.st3{fill:#00ADDB;}
	.st4{fill:#FFD065;}
	.st5{fill:#FFFFFF;}
	.st6{fill:#002136;}
</style>
<g id="BG" class="st0">
</g>
<g id="Layer_1">
	<g>
		<path class="st5" d="M713.76,138.55c-17.97-14.96-40.76-22.89-64.14-22.33h-98.49v258.2h57.84v-85.7h40.65    c23.43,0.59,46.27-7.35,64.27-22.34c17.7-15.59,27.06-37.68,27.06-63.91C740.94,176.25,731.54,154.17,713.76,138.55     M608.97,166.88h35.49c23.97,0,38.32,13.31,38.32,35.59c0,22.63-13.95,35.59-38.32,35.59h-35.49V166.88z"/>
		<path class="st5" d="M805.65,218.42l-2.5-23.73H753.2v179.72H809v-101.3c11.77-14.76,24.48-21.36,41.05-21.36h6.74v-55.47h-2.62    c-18.7-0.42-36.57,7.73-48.51,22.14"/>
		<path class="st5" d="M903.86,111.95c-17.79-0.02-32.23,14.38-32.24,32.17c-0.02,17.79,14.38,32.22,32.17,32.24    c17.79,0.02,32.23-14.38,32.25-32.17v-0.03c0.6-17.19-12.85-31.61-30.05-32.21C905.28,111.92,904.57,111.92,903.86,111.95"/>
		<rect x="875.77" y="194.69" class="st5" width="55.78" height="179.73"/>
		<path class="st5" d="M1098.43,317.42c0-27.18-18.54-44.9-56.67-54.17c-25.05-5.91-29.29-9.11-29.29-15.69    c0-2.75,0-11.15,20.1-11.15c14.55,0.07,28.66,5.09,39.98,14.23l2.46,1.95l21.36-40.41l-1.56-1.36    c-13.83-12.07-37.68-19.57-62.23-19.57c-46.79,0-75.85,22.89-75.85,59.75c0,27.46,16.81,42.75,58.07,52.79    c23.44,5.52,27.55,9.91,27.55,17.07c0,10.07-12.04,12.21-22.14,12.21c-16.89,0.02-33.24-5.98-46.11-16.93l-2.48-2.11l-21.77,40.86    l1.59,1.36c15.48,13.34,41.72,21.63,68.44,21.63c47.78,0,78.62-23.7,78.62-60.41"/>
		<path class="st5" d="M1118.32,385.22c0,13.9-8.49,22.52-22.14,22.52c-9.96-0.62-19.17-5.55-25.19-13.51l-1.86-2.18l-36.42,37.61    l1.75,1.82c16.36,17.03,39.17,26.33,62.77,25.59c44.55,0,76.9-31.79,76.9-75.58v-186.8h-55.8L1118.32,385.22L1118.32,385.22z"/>
		<path class="st5" d="M1144.1,111.95c-17.79-0.02-32.23,14.39-32.24,32.18c-0.01,17.79,14.39,32.22,32.18,32.23    c17.79,0.02,32.22-14.39,32.24-32.18v-0.03c0.6-17.19-12.85-31.61-30.04-32.21C1145.53,111.92,1144.81,111.92,1144.1,111.95"/>
		<path class="st5" d="M1321.96,210.56c-7.94-8.72-22.92-19.32-49.15-19.32c-47.3,0-80.34,38.44-80.34,93.48    c0,54.84,33.03,93.14,80.34,93.14c20.29,0,37.85-6.89,49.15-19.09l2.24,15.65h50.27V194.68h-50.26L1321.96,210.56z     M1285.19,328.57c-22.23,0-36.61-17.2-36.61-43.85c0-26.84,14.38-44.18,36.61-44.18c14.02,0,24.57,6.4,33.13,20.16v48.07    C1309.88,322.28,1299.33,328.57,1285.19,328.57"/>
		<polygon class="st5" points="1571.25,194.69 1504.12,194.69 1449.65,278.33 1449.65,113.61 1393.86,113.61 1393.86,374.41     1437.69,374.41 1479.1,317.72 1511.91,374.41 1575.33,374.41 1515.83,269.43   "/>
		<path class="st5" d="M1693.26,320.78l-2.79,1.6c-6.49,3.4-13.74,5.05-21.06,4.83c-13.44,0-21.46-7.91-21.46-21.14V242.6h49.86    v-47.9h-49.86v-57.83h-55.77v57.83h-0.44l-35.38,47.9h35.81v64.17c0,44.51,27.07,71.11,72.42,71.11    c14.5,0.19,28.77-3.62,41.23-11.03l1.78-1.07L1693.26,320.78z"/>
		<g>
			<path class="st2" d="M244.89,0.5C380.2,0.4,489.97,110,490.08,245.31c0.1,135.31-109.5,245.09-244.81,245.19     C109.95,490.6,0.18,381,0.08,245.69v-0.19C0.02,110.24,109.63,0.56,244.89,0.5"/>
			<path class="st3" d="M244.81,116.02c71.5-0.05,129.5,57.88,129.55,129.39c0.04,71.5-57.88,129.5-129.39,129.54     c-71.5,0.05-129.5-57.88-129.55-129.38v-0.08C115.41,174.01,173.34,116.05,244.81,116.02"/>
			<path class="st4" d="M429.04,245.51c0.06-38.29-11.85-75.65-34.08-106.83l24.19-24.22c-12.37-16.47-27-31.11-43.45-43.49     L351.47,95.2c-63.79-45.28-149.21-45.32-213.03-0.1l-24.24-24.25c-16.47,12.37-31.11,27.01-43.49,43.47l24.21,24.22     c-45.49,63.92-45.57,149.62-0.21,213.63L70.6,376.29c12.38,16.46,27.01,31.11,43.47,43.49l24.08-24.1     c63.95,45.51,149.72,45.47,213.63-0.1l24.07,24.09c16.45-12.41,31.07-27.06,43.42-43.55l-24.09-24.11     c22.09-31.12,33.92-68.35,33.87-106.52 M115.51,245.49c0.07-71.45,58.05-129.32,129.5-129.25     c71.46,0.07,129.32,58.05,129.25,129.5C374.2,317.15,316.29,375,244.88,374.99c-71.49-0.03-129.41-58.01-129.38-129.49"/>
			<path class="st4" d="M244.82,184.06c33.94-0.03,61.49,27.46,61.52,61.4s-27.46,61.49-61.4,61.52     c-33.94,0.03-61.49-27.46-61.52-61.41v-0.06C183.4,211.59,210.88,184.07,244.82,184.06L244.82,184.06"/>
		</g>
	</g>
</g>
</svg>