<svg id="Layer_1" data-name="Layer 1" xmlns="http://www.w3.org/2000/svg" viewBox="0 0 500 92.63"><defs><style>.cls-1{fill:#002136;}.cls-2{fill:#00addb;}.cls-3{fill:#ffd065;}.cls-4{fill:#f36;}</style></defs><path class="cls-1" d="M30.12,32.81a16.53,16.53,0,0,0-11-3.83H2.21V73.3h9.93V58.59h7a16.57,16.57,0,0,0,11-3.84,14.14,14.14,0,0,0,4.64-11,14.08,14.08,0,0,0-4.67-11m-18,4.86h6.09c4.11,0,6.58,2.29,6.58,6.11s-2.4,6.11-6.58,6.11H12.14Z"/><path class="cls-1" d="M45.9,46.52l-.43-4.07H36.89V73.3h9.58V55.91c2-2.53,4.2-3.67,7.05-3.67h1.16V42.72h-.45a10.53,10.53,0,0,0-8.33,3.8"/><path class="cls-1" d="M62.76,28.24a5.53,5.53,0,1,0,5.52,5.54h0a5.36,5.36,0,0,0-5.16-5.53h-.36"/><rect class="cls-1" x="57.94" y="42.45" width="9.58" height="30.85"/><path class="cls-1" d="M96.16,63.52c0-4.67-3.19-7.71-9.73-9.3-4.3-1-5-1.57-5-2.7,0-.47,0-1.91,3.45-1.91a11,11,0,0,1,6.86,2.44l.43.34,3.66-6.94-.27-.23c-2.37-2.08-6.46-3.36-10.68-3.36-8,0-13,3.93-13,10.25,0,4.72,2.89,7.34,10,9.07,4,.94,4.73,1.7,4.73,2.93,0,1.73-2.07,2.09-3.8,2.09a12.22,12.22,0,0,1-7.92-2.9l-.42-.37-3.74,7,.27.23c2.66,2.29,7.16,3.71,11.75,3.71,8.2,0,13.5-4.07,13.5-10.37"/><path class="cls-1" d="M99.57,75.15A3.56,3.56,0,0,1,95.77,79a5.87,5.87,0,0,1-4.32-2.32l-.32-.38-6.25,6.46.3.31A14.26,14.26,0,0,0,96,87.48c7.65,0,13.2-5.45,13.2-13V42.45H99.57v32.7Z"/><path class="cls-1" d="M104,28.24a5.53,5.53,0,1,0,5.52,5.54h0a5.36,5.36,0,0,0-5.16-5.53H104"/><path class="cls-1" d="M134.53,45.17c-1.37-1.49-3.94-3.31-8.44-3.31-8.12,0-13.79,6.59-13.79,16s5.67,16,13.79,16a11.31,11.31,0,0,0,8.44-3.28l.38,2.69h8.63V42.45h-8.63Zm-6.31,20.26c-3.82,0-6.29-3-6.29-7.53s2.47-7.58,6.29-7.58c2.4,0,4.21,1.1,5.68,3.46V62a6.33,6.33,0,0,1-5.68,3.4"/><polygon class="cls-1" points="177.32 42.45 165.8 42.45 156.45 56.8 156.45 28.53 146.87 28.53 146.87 73.3 154.39 73.3 161.5 63.57 167.13 73.3 178.02 73.3 167.81 55.28 177.32 42.45"/><path class="cls-1" d="M198.26,64.09l-.48.28a7.31,7.31,0,0,1-3.61.82,3.36,3.36,0,0,1-3.69-3.62V50.67H199V42.45h-8.56V32.52h-9.57v9.93h-.08l-6.07,8.22h6.15v11c0,7.64,4.64,12.2,12.43,12.2A13.45,13.45,0,0,0,200.42,72l.3-.18Z"/><path class="cls-1" d="M293.09,74.14h-4.64V28.63h4.64Z"/><path class="cls-1" d="M329.92,55.63V74.14h-4.5V55.88c0-5.32-3.23-9-8.18-9-4.16,0-6.82,2.29-9.17,5.4V74.14h-4.52v-31h4.15l.12,4.15a13.27,13.27,0,0,1,10.35-4.78C325.59,42.55,329.92,47.82,329.92,55.63Z"/><path class="cls-1" d="M358.25,46l-2,3.46a12.7,12.7,0,0,0-7.92-2.78c-3.91,0-6.57,1.36-6.57,4.65,0,3,2.12,3.82,7.38,5.07,7.17,1.72,10.45,4.39,10.45,9.05,0,5.63-4.64,9.34-11.75,9.34a18,18,0,0,1-11.52-3.71l2.1-3.65a14.41,14.41,0,0,0,9.42,3.34c4.2,0,7.25-1.67,7.25-5.09,0-3-2.29-4.14-7.56-5.38-7.19-1.61-10.22-4-10.22-8.72,0-5.71,4.34-9,11-9A15.72,15.72,0,0,1,358.25,46Z"/><path class="cls-1" d="M372.52,33.15a3.18,3.18,0,0,1-3.28,3.23A3.13,3.13,0,0,1,366,33.15a3.17,3.17,0,0,1,3.21-3.28A3.22,3.22,0,0,1,372.52,33.15Zm-1,41H367v-31h4.52Z"/><path class="cls-1" d="M403.45,47.27l.13-4.09h4.14v30.4c0,9.59-6.06,15.42-15.35,15.42a17,17,0,0,1-13.69-6.37l3-2.92A13.43,13.43,0,0,0,392.32,85c6.68,0,10.95-4.41,10.95-11.27V70.29c-1.92,2.3-5.15,4.47-10.33,4.47-8.49,0-14.38-6.76-14.38-16.1s5.89-16.11,14.38-16.11A12.82,12.82,0,0,1,403.45,47.27ZM383.09,58.66c0,7.13,4.39,12.08,10.53,12.08,4.7,0,7.48-2.35,9.65-5.63V52.23c-2.17-3.23-4.95-5.58-9.65-5.58C387.48,46.65,383.09,51.61,383.09,58.66Z"/><path class="cls-1" d="M422.42,47.14a12.86,12.86,0,0,1,10.11-4.59c7.42,0,11.75,5.27,11.75,13.08V74.14h-4.51V55.88c0-5.32-3.22-9-8.18-9-4.15,0-6.82,2.29-9.17,5.4V74.14H417.9V27.07h4.52Z"/><path class="cls-1" d="M460.05,43.18h10.22v4H460.05V64.35c0,4.1,2.41,6.25,5.89,6.25a9.13,9.13,0,0,0,4.64-1L472,73.15a11.76,11.76,0,0,1-6.38,1.61c-6.06,0-10-3.53-10-10.33V47.14h-6.33v-4h6.33V32.65h4.45Z"/><path class="cls-1" d="M496.43,46l-2,3.46a12.7,12.7,0,0,0-7.92-2.78c-3.91,0-6.57,1.36-6.57,4.65,0,3,2.12,3.82,7.38,5.07,7.17,1.72,10.45,4.39,10.45,9.05,0,5.63-4.64,9.34-11.75,9.34a18,18,0,0,1-11.52-3.71l2.1-3.65A14.39,14.39,0,0,0,486,70.74c4.2,0,7.25-1.67,7.25-5.09,0-3-2.3-4.14-7.56-5.38-7.19-1.61-10.22-4-10.22-8.72,0-5.71,4.33-9,11-9A15.7,15.7,0,0,1,496.43,46Z"/><path class="cls-2" d="M279.51,74.17h-19V3.45h19Z"/><path class="cls-3" d="M254.55,74.17h-19V29h19Z"/><path class="cls-4" d="M229.12,74.17h-19V53.7h19Z"/></svg>